<?xml version="1.0" encoding="utf-8"?>
<!-- Generator: Adobe Illustrator 17.0.0, SVG Export Plug-In . SVG Version: 6.00 Build 0)  -->
<!DOCTYPE svg PUBLIC "-//W3C//DTD SVG 1.0//EN" "http://www.w3.org/TR/2001/REC-SVG-20010904/DTD/svg10.dtd">
<svg version="1.0" id="Layer_1" xmlns="http://www.w3.org/2000/svg" xmlns:xlink="http://www.w3.org/1999/xlink" x="0px" y="0px"
	 width="599.834px" height="469.925px" viewBox="0 0 599.834 469.925" enable-background="new 0 0 599.834 469.925"
	 xml:space="preserve">
<g>
	<path fill="#A8D1B0" d="M384.78,99.029c1.464,0,2.928,0,4.867,0c0,3.975,0,7.563,0,11.515c3.354,0,6.236,0,9.942,0
		c0.058-5.653,0.137-11.215,0.165-16.778c0.028-5.648,0.006-11.296,0.006-16.944c0-5.814,0-11.628,0-17.443
		c0-5.648,0-11.296,0-16.944s0-11.296,0-16.944c0-5.606,0-11.212,0-17.282c3.744,0,7.001,0,11.094,0c0-3.036,0-5.622,0-8.209
		c7.333,0,14.667,0,22,0c0.138,2.769,0.276,5.537,0.438,8.798c3.884,0,7.305,0,11.077,0c0,31.834,0,63.144,0,95.072
		c6.549,0,12.774,0,19.328,0c0.17,3.184,0.309,5.786,0.471,8.815c6.426,0,12.762,0,19.465,0c0-14.423,0-28.693,0-42.509
		c2.641-4.002,5.844-5.312,10.082-5.157c6.81,0.25,13.635,0.067,20.994,0.067c1.485,1.673,3.131,3.528,5.15,5.804
		c0,16.811,0,34.091,0,51.841c4.565,0,8.822,0,13.671,0c0,10.165,0,19.882,0,30.229c4.617,0,8.669,0,13.476,0
		c0,9.068,0,17.502,0,25.936c-2.596,0-5.192,0-7.9,0c-0.205-2.868-0.367-5.13-0.523-7.314c-3.882-1.639-8.398,1.059-12.013-2.998
		c0-8.44,0-17.351,0-26.723c-8.067,0-15.652,0-23.46,0c-0.201-4.181-0.38-7.9-0.554-11.531c-11.454,0-22.363,0-33.293,0
		c-1.084,3.328,0.815,7.127-2.03,9.246c-5.334,0-10.241,0-15.606,0c0-4.683,0-8.937,0-13.666c-5.065,0-9.655,0-14.867,0
		c0-11.525,0-22.572,0-34.566c-11.295,2.081-17.927,10.017-26.37,15.259c0,4.604,0,8.668,0,13.226c-3.947,0-7.371,0-10.533,0
		c-3.678,4.443-0.749,9.551-2.721,14.137c-4.204-0.298-8.457,0.679-12.629-0.548c-0.278-1.014-0.595-1.638-0.597-2.262
		c-0.038-9.988-0.055-19.976-0.003-29.964C383.91,100.469,384.475,99.75,384.78,99.029z"/>
	<path fill="#C5DCD5" d="M598.808,234.94c-0.045,0.815-0.09,1.63-0.118,2.154c-2.74,1.111-5.25,2.13-7.637,3.098
		c-0.138,2.393-0.242,4.206-0.374,6.502c-3.627,0-7.203,0-10.801,0c-0.796,1.501-1.393,2.628-2.047,3.861
		c-1.477,0.24-2.921,0.475-4.614,0.751c-0.208,1.635-0.413,3.247-0.696,5.469c-2.6,0.133-5.322,0.272-8.522,0.435
		c0,7.178,0,14.1,0,21.387c-4.07,0-7.655,0-11.913,0c0-3.871,0-7.91,0-12.268c-2.031,0-3.396,0-5.228,0c0,4.197,0,8.132,0,12.533
		c-4.367,0-8.293,0-12.885,0c0,5.506,0,10.552,0,16.077c-4.909,0-9.167,0-13.951,0c0,9.559,0,18.645,0,27.395
		c-3.268,2.737-6.375,3.813-10.091,3.688c-5.826-0.196-11.673,0.141-17.493-0.135c-2.836-0.135-5.63-1.145-8.557-1.784
		c0-8.281,0-15.753,0-23.645c-6.322,0-12.363,0-18.709,0c-0.242,1.379-0.487,2.78-0.811,4.624c-6.469,0-12.727,0-19.5,0
		c0,16.909,0,33.331,0,50.405c-3.702,0.258-6.927,0.483-10.455,0.728c-0.313,1.306-0.646,2.698-1.061,4.435
		c-7.157,0-14.408,0-21.988,0c-0.29-1.262-0.609-2.655-1.036-4.514c-3.172,0-6.436,0-10.357,0c0-18.168,0-35.879,0-53.868
		c-3.573,0-6.49,0-9.725,0c-0.215,1.657-0.423,3.255-0.67,5.158c-1.287,0.299-2.682,0.623-4.121,0.957
		c-0.452,0.819-0.914,1.658-1.386,2.513c-1.783,0.079-3.44,0.153-5.397,0.24c-0.439,1.099-0.904,2.261-1.353,3.385
		c-3.142,1.306-4.211-0.676-4.969-3.256c-1.523-0.131-2.991-0.258-4.705-0.406c-0.498-0.826-1.068-1.772-1.799-2.983
		c-3.073,0-6.198,0-9.561,0c-0.248-1.894-0.458-3.498-0.72-5.5c-3.004,0-6.048,0-9.784,0c0,17.286,0,34.505,0,51.624
		c-3.426,1.496-6.031,1.153-8.625-0.403c-8.678-5.203-17.391-10.35-26.067-15.556c-1.112-0.667-2.091-1.554-3.327-2.486
		c0-14.701,0-29.319,0-44.247c-2.615,0-4.869,0-7.507,0c-0.258,2.175-0.523,4.404-0.832,7.001c-1.645,0.324-3.215,0.633-4.971,0.979
		c-0.294,0.615-0.641,1.34-1.051,2.197c-1.156,0-2.375,0-4.002,0c-0.299,2.064-0.576,3.971-0.892,6.155
		c-1.375,0.237-2.78,0.479-4.638,0.799c0,4.102,0,8.03,0,12.146c-4.713,0-8.921,0-13.871,0c-0.067-7.957-0.13-15.568-0.194-23.178
		c-0.488-0.016-0.976-0.032-1.464-0.048c-0.491,4.108-0.637,8.297-1.564,12.304c-1.108,4.789-2.253,9.762-4.549,14.028
		c-2.332,4.334-6.42,7.203-12.02,6.383c-1.304-0.191-2.66-0.028-3.981-0.028c-9.052-4.345-9.56-13.253-11.497-21.534
		c-1.486-0.302-2.899-0.589-4.426-0.9c0.154-2.941,0.302-5.79,0.462-8.844c-1.663-0.336-2.737-0.554-4.081-0.826
		c-0.509,1.346-0.949,2.509-1.561,4.127c-5.823,0-11.751,0-18.146,0c0,15.062,0,29.651,0,44.599c-2.715,0.206-4.979,0.377-7.6,0.575
		c-0.283,1.673-0.574,3.4-0.915,5.417c-1.389,0.216-2.796,0.436-4.35,0.678c-0.173,1.868-0.323,3.477-0.501,5.395
		c-1.428,0.097-2.689,0.182-4.247,0.288c-0.298-1.948-0.564-3.689-0.858-5.609c-1.599-0.317-3.169-0.627-4.941-0.978
		c-0.377-1.68-0.729-3.246-1.14-5.077c-1.906-0.18-3.847-0.364-6.269-0.594c0-14.627,0-29.218,0-43.978
		c-1.807-0.45-3.196-0.796-4.887-1.217c-0.225-1.624-0.466-3.364-0.737-5.323c-2.141,0-4.069,0-6.683,0c0,4.665,0,9.22,0,13.952
		c-2.189,0.461-3.761,0.792-5.377,1.133c-1.792,2.078,0.838,5.733-3.151,7.882c-0.263-2.821-0.48-5.154-0.732-7.868
		c-2.037-0.237-4.106-0.478-6.633-0.773c0-4.714,0-9.306,0-14.378c-4.391,0-8.313,0-12.413,0c-0.424-1.819-0.749-3.211-1.137-4.875
		c-4.26,0-8.519,0-13.287,0c0,9.626,0,19.209,0,29.344c-2.372,0.175-4.287,0.317-6.438,0.476c-0.507,0.837-1.079,1.784-1.672,2.763
		c-6.084,0-12.073,0-18.279,0c-0.652-1.148-1.352-2.381-2.181-3.842c-1.866,0.186-3.616,0.36-6.213,0.619
		c-0.947-5.547-0.307-11.141-0.425-16.664c-0.117-5.462-0.026-10.927-0.026-16.859c-4.373,0-8.302,0-12.88,0
		c0-4.169,0-7.889,0-11.858c-2.891-0.219-5.154-0.39-7.784-0.59c-0.217-1.982-0.427-3.903-0.667-6.104
		c-1.073-0.39-2.261-0.822-3.719-1.352c0-3.52,0-6.98,0-10.83c-2.552,0-4.791,0-7.385,0c-0.34,0.928-0.774,2.116-1.245,3.403
		c-3.917,0-7.716,0-12.183,0c0-4.452,0-8.832,0-13.679c-5.568,0-10.494,0-15.501,0c-0.55-1.779-0.972-3.143-1.536-4.965
		c-7.17,0-14.263,0-22.036,0c0-2.11,0-3.699,0-5.288c2.625-0.253,5.25-0.734,7.874-0.726c67.6,0.205,135.2,0.643,202.8,0.654
		c60.771,0.01,121.543-0.545,182.314-0.66c66.298-0.126,132.596-0.032,198.894-0.044C594.819,235.113,596.813,235,598.808,234.94z"
		/>
	<path fill="#8BC49B" d="M384.78,99.029c-0.304,0.721-0.87,1.44-0.873,2.162c-0.051,9.988-0.035,19.976,0.003,29.964
		c0.002,0.624,0.319,1.248,0.597,2.262c4.172,1.226,8.425,0.25,12.629,0.548c1.971-4.586-0.958-9.695,2.721-14.137
		c3.162,0,6.587,0,10.533,0c0-4.557,0-8.621,0-13.226c8.442-5.241,15.075-13.178,26.37-15.259c0,11.994,0,23.041,0,34.566
		c5.212,0,9.803,0,14.867,0c0,4.729,0,8.984,0,13.666c5.365,0,10.272,0,15.606,0c2.845-2.118,0.946-5.918,2.03-9.246
		c10.93,0,21.839,0,33.293,0c0.175,3.632,0.353,7.35,0.554,11.531c7.809,0,15.393,0,23.46,0c0,9.371,0,18.283,0,26.723
		c3.614,4.057,8.131,1.359,12.013,2.998c0.156,2.184,0.318,4.447,0.523,7.314c2.708,0,5.304,0,7.9,0c1.45,0,2.9,0,4.766,0
		c0-8.037,0-15.626,0-23.633c4.096,0,7.782,0,11.999,0c0,13.115,0,26.171,0,39.551c3.179,0.265,5.885,0.49,9.281,0.773
		c0,4.388,0,8.338,0,12.287c-4.926,0-9.851,0-15.257,0c0-5.482,0-10.406,0-15.491c-3.531,0-6.564,0-9.665,0
		c-0.211,2.302-0.388,4.231-0.609,6.63c-5.7-0.685-11.432,1.731-16.894-2.607c0-3.98,0-8.047,0-12.794c-5.775,0-10.989,0-16.895,0
		c0-8.399,0-16.122,0-23.836c-2.088-0.54-3.492-0.903-4.915-1.271c-0.631-1.217-1.219-2.35-1.687-3.252c-4.461,0-8.582,0-12.747,0
		c-0.402,1.274-0.737,2.339-1.111,3.527c-2.043,0.17-3.973,0.33-6.573,0.547c0,8.104,0,15.99,0,24.165c-5.857,0-11.007,0-16.86,0
		c0-4.031,0-7.578,0-11.573c-11.614,0-22.53,0-33.388,0c-1.667-4.715,0.829-9.644-1.655-13.508
		c-2.718,0.224-4.842,0.543-6.968,0.551c-12.152,0.049-24.305,0.015-36.457,0.035c-1.754,0.003-3.508,0.145-5.406,0.229
		c-0.392,11.111,0.232,21.686-0.387,32.736c-4.426,0-8.052,0-11.679,0c-0.09-4.233-0.179-8.467-0.275-12.993
		c-6.839,0.262-13.062-0.398-19.82,0.509c0,4.582,0,8.531,0,12.48c-4.578,0-9.156,0-14.185,0c0-4.08,0-7.333,0-11.055
		c-4.065,0-7.653,0-11.877,0c0-5.851,0-11.224,0-17.266c-4.867,0-9.084,0-13.351,0c-0.402-2.558-0.699-4.453-0.996-6.346
		c-2.225,0-4.142,0-6.117,0c-0.341,2.178-0.638,4.077-1.034,6.614c-4.457,0-8.68,0-13.447,0c0,8.136,0,15.58,0,23.023
		c-3.203,0-6.407,0-9.983,0c0,4.214,0,7.627,0,11.04c-5.316,0.008-10.633,0.017-15.949,0.025c0-9.452,0-18.905,0-28.557
		c-1.827-0.325-3.231-0.574-4.29-0.762c-0.718-1.158-1.21-1.95-1.592-2.566c-2.342,0-4.32,0-6.311,0
		c-0.54,0.933-1.022,1.765-1.463,2.526c-1.386,0.271-2.647,0.518-4.381,0.857c0,6.908,0,13.698,0,20.487c-4.579,0-9.157,0-14.189,0
		c0-5.086,0-9.338,0-14.059c-4.067,0-7.657,0-11.719,0c0-4.723,0-8.981,0-13.257c-1.51-0.46-2.579-0.786-3.516-1.072
		c-0.543-1.539-1.02-2.893-1.514-4.292c-11.72,0-23.124,0-34.557,0c-0.372,1.667-0.684,3.064-0.971,4.353
		c-1.55,0.301-2.814,0.546-4.507,0.874c0,5.899,0,11.689,0,17.478c-3.337,0.003-6.674,0.007-10.011,0.01c0-2.575,0-5.15,0-7.695
		c-4.057,0-7.297,0-11,0c0,2.768,0,5.221,0,7.674c-1.454,0.082-2.908,0.164-4.369,0.246c-0.498,1.353-0.928,2.52-1.278,3.471
		c-2.221,0.338-4.092,0.624-6.351,0.968c0,4.46,0,8.389,0,12.319c-2.745,0-5.491,0-8.656,0c-0.22-4.417-0.396-7.974-0.572-11.512
		c-1.723-0.381-3.117-0.689-4.512-0.997c-0.205-2.196-0.385-4.121-0.565-6.048c-11.854,0-23.366,0-35.122,0
		c-0.342,2.285-0.626,4.181-0.917,6.123c-1.575,0.328-2.969,0.619-4.78,0.997c0,3.792,0,7.379,0,11.031c-3.85,0-7.205,0-11.012,0
		c0-11.639,0-22.874,0-34.569c-2.574,0-4.695,0-6.816,0c0-7.45,0-14.901,0-23.161c4.89,0,9.313,0,13.736,0c2.601,0,5.201,0,7.859,0
		c0.301-2.578,0.541-4.633,0.802-6.87c6.34,0.205,12.25-0.399,18.043,0.377c0.432,2.683,0.737,4.573,1.11,6.894
		c4.903,0,9.483,0,14.537,0c0,4.416,0,8.34,0,12.329c6.853,0,13.212,0,19.697,0c0-10.232,0-20.041,0-29.85
		c0-8.961,0-17.922,0-27.291c2.347-0.241,4.41-0.452,7.215-0.74c0-4.85,0-9.653,0-14.456c0.51-0.017,1.019-0.035,1.529-0.052
		c1.03,4.637-0.053,9.513,0.662,14.514c1.843,0.208,3.575,0.403,5.882,0.664c0,9.262,0,18.352,0,27.443c0,9.926,0,19.852,0,29.72
		c2.627,0,4.651,0,7.162,0c0-4.372,0-8.29,0-12.682c7.073,0,13.657,0,20.895,0c0-9.522,0-18.564,0-27.864
		c3.485,0,6.309,0.113,9.118-0.036c2.233-0.118,4.449-0.557,6.672-0.853c6.041,0,12.082,0,18.888,0c0,2.516,0,4.733,0,6.951
		c-1.803,7.152-0.468,14.327-0.699,21.456c3.414,0,6.28,0,9.678,0c0-13.575,0-26.673,0-39.771c0.78-10.722,1.383-21.464,4.98-31.756
		c1.344-3.845,3.082-7.331,6.585-9.63c7.545-1.236,11.108,0.429,13.94,7.785c2.063,5.361,3.478,11.039,4.561,16.695
		c2,10.442,2.423,21.046,2.284,31.674c-0.026,1.972,0.351,3.949,0.541,5.924c-0.324,6.681-0.649,13.363-0.979,20.164
		c3.242,0,5.591,0,8.202,0c0-7.497,0-14.591,0-20.802c2.12-2.565,3.699-4.475,5.832-7.057c2.321,0,5.453,0,8.585,0
		c1.314,0.08,2.628,0.16,4.134,0.251c0.26,1.547,0.499,2.969,0.777,4.622c1.47,0.203,2.894,0.401,4.893,0.677
		c0,4.57,0,9.016,0,13.462c0,3.604,0,7.207,0,10.822c9.533,0,18.56,0,28.282,0c0-4.656,0-8.873,0-13.133c6.918,0,13.118,0,19.807,0
		c0,9.021,0,17.605,0,26.025c6.7,0,12.898,0,19.114,0c0.287-1.115,0.59-1.742,0.588-2.368c-0.044-17.815-0.12-35.63-0.19-53.446
		c0-1.969,0-3.939,0-6.067c2.197-0.281,3.957-0.506,5.974-0.764c0.174-1.708,0.338-3.318,0.547-5.372
		c1.36-0.08,2.739-0.161,4.449-0.261c0.167,2.3,0.308,4.227,0.47,6.457c2.053,0.205,3.979,0.398,6.457,0.645
		C384.601,95.172,384.69,97.101,384.78,99.029z"/>
	<path fill="#4BB076" d="M353.803,191.957c0-3.949,0-7.898,0-12.48c6.758-0.906,12.981-0.247,19.82-0.509
		c0.096,4.527,0.186,8.76,0.275,12.993c0,5.419,0,10.837,0,16.705c4.695,0.213,8.588,0.389,12.679,0.575
		c0.221,2.711,0.416,5.106,0.607,7.455c4.088,0,7.678,0,11.143,0c0.713-2.345,1.329-4.373,1.902-6.257
		c1.862-0.404,3.427-0.744,5.455-1.184c0.131-6.378,0.257-12.561,0.387-18.868c2.967-0.268,5.07-0.458,7.429-0.67
		c0.254-1.533,0.487-2.935,0.735-4.427c11.709,0,23.115,0,34.518,0c0.859,1.653,1.595,3.07,2.276,4.38
		c2.028,0.286,3.775,0.533,5.816,0.82c0,3.755,0,7.23,0,10.705c0,3.455,0,6.91,0,10.117c2.355,0.954,4.157,1.684,5.757,2.333
		c0.272,1.93,0.495,3.518,0.707,5.021c2.627,0,4.874,0,7.814,0c0-5.206,0-10.089,0-14.759c5.855-1.451,34.831-1.157,38.37,0.299
		c0.251,2.438,0.515,4.993,0.823,7.989c10.952,0,21.532,0,32.311,0c0.178,3.856,0.334,7.235,0.481,10.438c5.911,0,11.16,0,16.437,0
		c0.242-1.97,0.439-3.571,0.639-5.191c3.834,0,7.367,0,11.024,0c0.408,1.979,0.731,3.546,1.154,5.596c2.193,0,4.318,0,6.442,0
		c1.8,0,3.6,0,5.629,0c0.303,1.781,0.542,3.185,0.842,4.946c2.014,0,3.809,0,5.604,0c1.135,0.714,2.271,1.428,3.406,2.142
		c-0.104,0.229-0.208,0.457-0.312,0.686c1.399,0.156,2.797,0.312,4.564,0.509c0.089,1.184,0.18,2.401,0.271,3.618
		c-1.995,0.06-3.99,0.173-5.984,0.173c-66.298,0.012-132.596-0.082-198.894,0.044c-60.772,0.115-121.543,0.67-182.314,0.66
		c-67.6-0.011-135.2-0.449-202.8-0.654c-2.624-0.008-5.249,0.473-7.874,0.726c0-3.448,0-6.895,0-10.695c7.373,0,14.299,0,21.677,0
		c0-2.932,0-5.518,0-8.637c5.494,0,10.558,0,16.033,0c0-8.941,0-17.365,0-26.191c4.619,0,8.829,0,13.394,0
		c0.244,2.22,0.495,4.503,0.746,6.786c0,6.108,0,12.216,0,18.494c4.942,0.392,9.267,0.736,13.996,1.111c0-4.026,0-7.643,0-10.767
		c1.796-2.296,3.206-4.096,4.545-5.808c5.539,0,10.835,0,15.966,0c1.578,1.763,2.993,3.345,4.755,5.314c0,3.051,0,6.501,0,10.128
		c1.707,0,3.07,0,5.119,0c0-6.561,0-12.785,0-19.702c3.588,0.529,6.404,0.944,9.423,1.389c0.83,5.972-0.423,11.905,0.77,17.593
		c0.431,0.078,0.863,0.155,1.294,0.233c0.672-1.283,1.344-2.566,2.017-3.849c2.555-0.276,5.108-0.551,7.842-0.845
		c0-4.071,0-7.59,0-11.328c4.36,0.063,8.61-0.635,13.429,0.67c0,5.155,0,10.031,0,14.887c4.62,0,8.533,0,12.9,0
		c0-6.101,0-11.89,0-17.679c0-3.929,0-7.858,0-12.319c2.258-0.344,4.13-0.629,6.351-0.968c0.35-0.951,0.78-2.118,1.278-3.471
		c1.461-0.082,2.915-0.164,4.369-0.246c3.667,0.007,7.333,0.014,11,0.022c3.337-0.003,6.674-0.007,10.011-0.01
		c3.466,0,6.933,0,10.26,0c0.651,1.803,1.142,3.162,1.576,4.365c1.784,0.575,3.305,1.065,5.522,1.78
		c-0.419,7.417-0.846,14.661-1.228,21.908c-0.147,2.776-0.758,5.696,2.064,8.018c1.751-0.096,3.66-0.201,5.486-0.301
		c0.261-2.54,0.46-4.473,0.698-6.797c2.197,0.16,4.076,0.296,6.076,0.442c0.377,2.413,0.673,4.313,0.961,6.154c2.3,0,4.331,0,6.84,0
		c0-3.702,0-6.957,0-10.722c5.725,0,10.969,0,16.882,0c0,4.743,0,9.794,0,14.83c5.58,0,10.493,0,15.835,0c0-10.115,0-19.908,0-29.7
		c0-6.79,0-13.579,0-20.487c1.734-0.339,2.995-0.586,4.381-0.857c0.441-0.761,0.923-1.593,1.463-2.526c1.991,0,3.968,0,6.311,0
		c0.382,0.616,0.874,1.408,1.592,2.566c1.059,0.188,2.463,0.438,4.29,0.762c0,9.652,0,19.104,0,28.557c0,3.831,0,7.662,0,11.657
		c5.565,0,10.577,0,15.949,0c0-4.128,0-7.905,0-11.682c0-3.413,0-6.826,0-11.04c3.576,0,6.779,0,9.983,0
		c2.256,0.117,4.511,0.234,7.42,0.384c0,4.676,0,8.881,0,13.7c4.793,0,8.904,0,13.015,0c3.991,0,7.986-0.124,11.971,0.035
		c4.049,0.161,8.214-0.742,12.812,0.852c0,5.111,0,9.984,0,14.752c5.613,0,10.521,0,15.79,0
		C353.803,208.19,353.803,200.074,353.803,191.957z"/>
	<path fill="#6CBA87" d="M578.805,223.039c-2.124,0-4.249,0-6.442,0c-0.423-2.05-0.746-3.617-1.154-5.596c-3.658,0-7.19,0-11.024,0
		c-0.199,1.62-0.396,3.221-0.639,5.191c-5.277,0-10.526,0-16.437,0c-0.148-3.203-0.303-6.582-0.481-10.438
		c-10.779,0-21.359,0-32.311,0c-0.309-2.996-0.572-5.551-0.823-7.989c-3.539-1.456-32.515-1.75-38.37-0.299
		c0,4.669,0,9.553,0,14.759c-2.94,0-5.188,0-7.814,0c-0.212-1.503-0.435-3.091-0.707-5.021c-1.6-0.648-3.402-1.378-5.757-2.333
		c0-3.207,0-6.662,0-10.117c0-3.475,0-6.949,0-10.705c-2.041-0.288-3.789-0.534-5.816-0.82c-0.681-1.31-1.417-2.726-2.276-4.38
		c-11.403,0-22.809,0-34.518,0c-0.248,1.492-0.48,2.894-0.735,4.427c-2.359,0.213-4.461,0.403-7.429,0.67
		c-0.129,6.307-0.256,12.49-0.387,18.868c-2.028,0.44-3.592,0.78-5.455,1.184c-0.573,1.884-1.189,3.912-1.902,6.257
		c-3.465,0-7.056,0-11.143,0c-0.191-2.349-0.386-4.744-0.607-7.455c-4.091-0.185-7.983-0.362-12.679-0.575
		c0-5.868,0-11.287,0-16.705c3.626,0,7.253,0,11.679,0c0.619-11.049-0.005-21.625,0.387-32.736c1.898-0.084,3.652-0.227,5.406-0.229
		c12.152-0.02,24.305,0.014,36.457-0.035c2.125-0.009,4.249-0.327,6.968-0.551c2.485,3.863-0.011,8.793,1.655,13.508
		c10.858,0,21.774,0,33.388,0c0,3.995,0,7.541,0,11.573c5.854,0,11.003,0,16.86,0c0-8.175,0-16.061,0-24.165
		c2.6-0.216,4.531-0.377,6.573-0.547c0.374-1.188,0.71-2.253,1.111-3.527c4.165,0,8.285,0,12.747,0
		c0.468,0.902,1.056,2.036,1.687,3.252c1.423,0.368,2.828,0.731,4.915,1.271c0,7.714,0,15.437,0,23.836c5.906,0,11.12,0,16.895,0
		c0,4.747,0,8.814,0,12.794c5.462,4.338,11.194,1.922,16.894,2.607c0.22-2.398,0.397-4.328,0.609-6.63c3.101,0,6.133,0,9.665,0
		c0,5.085,0,10.009,0,15.491c5.405,0,10.331,0,15.257,0c1.633,0,3.267,0,5.245,0c0.233,2.166,0.438,4.066,0.643,5.966
		C578.895,216.907,578.85,219.973,578.805,223.039z"/>
	<path fill="#A8D0B0" d="M366.617,98.653c0.07,17.815,0.145,35.63,0.19,53.446c0.002,0.626-0.302,1.253-0.588,2.368
		c-6.217,0-12.414,0-19.114,0c0-8.42,0-17.004,0-26.025c-6.689,0-12.889,0-19.807,0c0,4.26,0,8.476,0,13.133
		c-9.722,0-18.749,0-28.282,0c0-3.615,0-7.218,0-10.822c2.639,0.119,5.278,0.237,8.381,0.376c0-28.56,0-56.776,0-85.025
		c10.435-11.723,20.688-23.24,31.139-34.981c1.762,0,3.714,0,6.253,0c0,32.974,0,65.848,0,99.256c3.774,0,6.98,0,10.745,0
		c0.158-3.407,0.331-7.123,0.514-11.06C359.743,99.086,363.18,98.87,366.617,98.653z"/>
	<path fill="#A8D1B0" d="M206.814,110.107c-2.223,0.296-4.439,0.734-6.672,0.853c-2.81,0.149-5.633,0.036-9.118,0.036
		c0,9.3,0,18.342,0,27.864c-7.237,0-13.822,0-20.895,0c0,4.392,0,8.31,0,12.682c-2.511,0-4.535,0-7.162,0c0-9.868,0-19.794,0-29.72
		c2.449,0,4.897,0,7.803,0c0-3.978,0-7.577,0-11.412c1.817-0.304,3.216-0.537,5.049-0.843c0-28.437,0-56.665,0-85.172
		c2.395-0.196,4.336-0.354,6.752-0.552c0-2.944,0-5.868,0-9c1.92-0.48,3.439-0.861,5.051-1.264
		c0.327-3.817,0.646-7.526,0.979-11.411c1.94,0,3.216,0,4.936,0c0,3.696,0,7.298,0,11.082c1.771,0.429,3.165,0.766,5.02,1.215
		c0,3.139,0,6.406,0,10.161c2.814,0.205,5.215,0.379,8.257,0.6C206.814,53.613,206.814,81.86,206.814,110.107z"/>
	<path fill="#A8D1B0" d="M147.68,121.738c0,9.809,0,19.618,0,29.85c-6.485,0-12.844,0-19.697,0c0-3.989,0-7.914,0-12.329
		c-5.054,0-9.634,0-14.537,0c-0.374-2.321-0.678-4.211-1.11-6.894c-5.792-0.776-11.703-0.172-18.043-0.377
		c-0.261,2.237-0.501,4.292-0.802,6.87c-2.658,0-5.258,0-7.859,0c0-20.899,0-41.798,0-63.359c2.11-0.227,4.467-0.48,7.036-0.756
		c0.18-1.809,0.34-3.419,0.54-5.426c6.385,0,12.744,0,19.284,0c0.286,1.641,0.562,3.219,0.915,5.244
		c2.302,0.234,4.533,0.46,7.197,0.73c0,18.362,0,36.596,0,55.22c4.799,0,9.143,0,13.884,0c0.208-2.917,0.391-5.481,0.625-8.772
		C139.462,121.738,143.571,121.738,147.68,121.738z"/>
	<path fill="#6CBA87" d="M144.846,196.993c0,5.789,0,11.577,0,17.679c-4.367,0-8.28,0-12.9,0c0-4.856,0-9.732,0-14.887
		c-4.819-1.305-9.07-0.607-13.429-0.67c0,3.738,0,7.257,0,11.328c-2.734,0.295-5.288,0.57-7.842,0.845
		c-0.673,1.284-1.345,2.567-2.017,3.849c-0.431-0.078-0.863-0.155-1.294-0.233c-1.193-5.688,0.06-11.621-0.77-17.593
		c-3.019-0.445-5.835-0.86-9.423-1.389c0,6.917,0,13.141,0,19.702c-2.049,0-3.412,0-5.119,0c0-3.627,0-7.077,0-10.128
		c-1.762-1.969-3.177-3.551-4.755-5.314c-5.131,0-10.427,0-15.966,0c-1.339,1.711-2.748,3.512-4.545,5.808c0,3.124,0,6.741,0,10.767
		c-4.729-0.375-9.054-0.719-13.996-1.111c0-6.277,0-12.386,0-18.494c2.316-0.073,4.631-0.145,6.947-0.218
		c1.317-0.283,2.634-0.566,3.997-0.859c0-7.516,0-14.396,0-21.276c0-4.045,0-8.091,0-12.781c3.036,0,5.598,0,8.161,0
		c2.121,0,4.242,0,6.816,0c0,11.695,0,22.93,0,34.569c3.806,0,7.162,0,11.012,0c0-3.652,0-7.239,0-11.031
		c1.811-0.378,3.205-0.669,4.78-0.997c0.291-1.942,0.575-3.838,0.917-6.123c11.756,0,23.269,0,35.122,0
		c0.18,1.927,0.36,3.852,0.565,6.048c1.395,0.308,2.789,0.616,4.512,0.997c0.176,3.538,0.353,7.095,0.572,11.512
		C139.355,196.993,142.101,196.993,144.846,196.993z"/>
	<path fill="#A9D1B1" d="M289.211,111.74c-3.132,0-6.264,0-8.585,0c-2.134,2.582-3.712,4.491-5.832,7.057c0,6.211,0,13.305,0,20.802
		c-2.611,0-4.96,0-8.202,0c0.33-6.801,0.654-13.483,0.979-20.164c2.995-0.471,2.246-2.817,2.255-4.676
		c0.058-11.644,0.062-23.289,0.083-34.934c0.002-1.323,0-2.646,0-4.417c4.559,0,8.913,0,13.759,0c0,7.592,0,15.17,0,22.929
		c1.816,0.397,3.21,0.701,4.838,1.057C288.742,103.538,288.977,107.639,289.211,111.74z"/>
	<path fill="#A9D2B2" d="M234.68,98.743c0,13.098,0,26.196,0,39.771c-3.398,0-6.264,0-9.678,0
		c0.231-7.129-1.103-14.304,0.699-21.456c1.258-0.096,2.515-0.192,4.228-0.323c0-5.931,0-11.605,0-17.433
		C231.815,99.08,233.248,98.911,234.68,98.743z"/>
	<path fill="#8BC49B" d="M578.805,223.039c0.045-3.066,0.09-6.132,0.135-9.198c3.785,0,7.57,0,11.94,0c0,4.992,0,9.568,0,14.144
		c-1.795,0-3.59,0-5.604,0c-0.3-1.761-0.539-3.165-0.842-4.946C582.405,223.039,580.605,223.039,578.805,223.039z"/>
	<path fill="#8EC69E" d="M63.735,174.799c0,6.88,0,13.76,0,21.276c-1.362,0.293-2.68,0.576-3.997,0.859c0-7.052,0-14.104,0-21.467
		C61.276,175.21,62.505,175.004,63.735,174.799z"/>
	<path fill="#6CBA87" d="M248.827,189.976c0,9.793,0,19.585,0,29.7c-5.342,0-10.254,0-15.835,0c0-5.036,0-10.088,0-14.83
		c-5.913,0-11.157,0-16.882,0c0,3.765,0,7.02,0,10.722c-2.509,0-4.54,0-6.84,0c-0.288-1.841-0.584-3.741-0.961-6.154
		c-2.001-0.146-3.879-0.282-6.076-0.442c-0.239,2.324-0.437,4.258-0.698,6.797c-1.826,0.1-3.735,0.205-5.486,0.301
		c-2.823-2.322-2.211-5.241-2.064-8.018c0.382-7.246,0.809-14.49,1.228-21.908c-2.216-0.714-3.738-1.205-5.522-1.78
		c-0.434-1.203-0.925-2.562-1.576-4.365c-3.328,0-6.794,0-10.26,0c0-5.789,0-11.578,0-17.478c1.693-0.328,2.957-0.573,4.507-0.874
		c0.288-1.289,0.599-2.687,0.971-4.353c11.433,0,22.837,0,34.557,0c0.493,1.399,0.971,2.754,1.514,4.292
		c0.936,0.285,2.005,0.611,3.516,1.072c0,4.276,0,8.534,0,13.257c4.062,0,7.652,0,11.719,0c0,4.721,0,8.973,0,14.059
		C239.67,189.976,244.249,189.976,248.827,189.976z"/>
	<path fill="#6CBA87" d="M353.803,191.957c0,8.117,0,16.233,0,24.692c-5.27,0-10.177,0-15.79,0c0-4.768,0-9.641,0-14.752
		c-4.598-1.594-8.762-0.691-12.812-0.852c-3.984-0.158-7.98-0.035-11.971-0.035c-4.111,0-8.222,0-13.015,0c0-4.82,0-9.025,0-13.7
		c-2.908-0.151-5.164-0.268-7.42-0.384c0-7.443,0-14.887,0-23.023c4.768,0,8.99,0,13.447,0c0.397-2.536,0.694-4.436,1.034-6.614
		c1.974,0,3.892,0,6.117,0c0.297,1.893,0.595,3.788,0.996,6.346c4.267,0,8.484,0,13.351,0c0,6.042,0,11.415,0,17.266
		c4.225,0,7.813,0,11.877,0c0,3.722,0,6.975,0,11.055C344.647,191.957,349.225,191.957,353.803,191.957z"/>
	<path fill="#6DBA88" d="M282.813,197.966c0,3.777,0,7.554,0,11.682c-5.372,0-10.384,0-15.949,0c0-3.995,0-7.826,0-11.657
		C272.18,197.983,277.496,197.975,282.813,197.966z"/>
	<path fill="#6CBA87" d="M167.843,180.01c-3.667-0.007-7.333-0.014-11-0.022c0-2.453,0-4.906,0-7.674c3.703,0,6.942,0,11,0
		C167.843,174.86,167.843,177.435,167.843,180.01z"/>
</g>
</svg>
