<?xml version="1.0" encoding="utf-8"?>
<!-- Generator: Adobe Illustrator 17.0.0, SVG Export Plug-In . SVG Version: 6.00 Build 0)  -->
<!DOCTYPE svg PUBLIC "-//W3C//DTD SVG 1.0//EN" "http://www.w3.org/TR/2001/REC-SVG-20010904/DTD/svg10.dtd">
<svg version="1.0" id="Layer_1" xmlns="http://www.w3.org/2000/svg" xmlns:xlink="http://www.w3.org/1999/xlink" x="0px" y="0px"
	 width="300px" height="300px" viewBox="0 0 300 300" enable-background="new 0 0 300 300" xml:space="preserve">
<g>
	<path fill="#88CCA5" d="M239.201,286.79l35.622-56.462L227.21,174.49c0,0-52.776-91.826-61.353-111.941
		c-8.04-18.871-24.718-13.684-17.381,4.697c5.612,14.025,11.804,27.086,11.804,27.086s-6.133,4.677-10.933-3.215
		c-6.346-10.452-20.85-31.56-31.077-48.98c-6.066-10.324-24.083-2.571-19.115,6.362c5.119,9.2,27.626,44.378,31.134,50.845
		c3.577,6.596,0.818,16.474-11.204,2.258c-7.83-9.276-26.14-31.887-39.243-48.938C71.298,41.54,50.87,54.2,58.753,65.044
		c5.649,7.772,38.377,51.317,43.296,58.341c5.004,7.142,3.545,11.773-8.104,5.037c-12.411-7.175-33.84-26.745-45.433-33.701
		c-16.881-10.143-30.706,11.762-18.971,19.676c10.36,6.97,42.372,33.96,61.793,45.683c10.036,6.036,29.563,23.563,11.214,23.932
		c-13.212,0.265-38.179-14.884-53.306-13.638c-15.524,1.274-17.969,25.891-10.17,27.716c17.297,4.052,75.841,39.117,98.391,48.297
		c12.524,5.109,34.039-1.239,40.833-0.045L239.201,286.79z"/>
</g>
</svg>
