<svg height='300px' width='300px'  fill="#000000" xmlns="http://www.w3.org/2000/svg" xmlns:xlink="http://www.w3.org/1999/xlink" version="1.1" x="0px" y="0px" viewBox="0 0 100 100" enable-background="new 0 0 100 100" xml:space="preserve"><g><path fill="#000000" d="M42.832,28.469l0.02-1.744c-0.998-1.57-1.111-3.369-0.307-4.944c0.456-0.893,1.192-1.658,2.076-2.212   c0.838-2.702,1.726-5.461,2.039-7.241c0.862-4.873-5.223-5.093-5.954-1.772c-0.636,2.904-3.66,12.21-4.525,17.289   c-0.024,0.14-0.051,0.286-0.08,0.437c0.687-0.545,1.495-0.946,2.351-1.136C40.128,26.775,41.724,27.257,42.832,28.469z"></path><path fill="#000000" d="M32.867,45.018c0.179-1.499,1.134-2.756,2.554-3.361c1.641-0.699,3.676-0.464,5.646,0.608   c-1.817-2.16-3.836-4.521-5.755-6.601l-2.443-4.325c-0.958-2.71-0.33-8.321-1.582-11.221c-1.252-2.901-5.528-1.179-5.356,0.428   c0.386,3.593-1.751,17.288-1.88,22.25c-0.099,3.696,0.666,8.206,0.666,8.206L6.084,81.592l16.013,10.084l18.948-30.089l0.144,0.094   c0,0,1.449-1.32,3.686-3.343c-3.741-3.283-7.047-6.111-8.678-7.326C32.965,48.606,32.724,46.224,32.867,45.018z"></path><path fill="#000000" d="M66.789,21.159c0.143,0.653,0.429,1.7,0.788,2.966c0.302-0.335,0.604-0.666,0.903-0.991   c2.324-2.52-1.196-5.795-3.524-4.842C65.835,18.947,66.513,19.904,66.789,21.159z"></path><path fill="#000000" d="M52.192,20.944c0.398,0.613,1.214,1.9,2.247,3.533c0.711-1.16,1.486-2.415,2.287-3.699   c0.276-0.897,0.764-1.631,1.374-2.192c0.877-1.391,1.757-2.77,2.589-4.054c2.289-3.53-3.586-6.712-5.684-3.476   c-0.715,1.102-2.884,4.541-5.055,7.978C50.852,19.42,51.625,20.069,52.192,20.944z"></path><path fill="#000000" d="M81.047,61.157c0.211-1.45,0.619-4.663,0.545-7.424c-0.13-4.962-2.266-18.657-1.88-22.25   c0.173-1.607-4.104-3.329-5.356-0.428c-1.253,2.901-0.624,8.511-1.582,11.222c-1.363,3.857-2.871-0.893-3.31-3.494   c-0.865-5.079-3.889-14.385-4.525-17.289c-0.731-3.322-6.815-3.101-5.954,1.771c0.584,3.316,3.159,10.027,3.699,13.438   c0.504,3.182-0.64,3.13-1.816,1.386c-1.178-1.746-8.762-13.836-10.228-16.097c-2.098-3.236-7.973-0.053-5.684,3.476   c3.375,5.206,7.525,11.978,9.128,14.722c2.385,4.091-0.343,3.982-1.686,2.555c-1.343-1.427-8.743-10.584-10.901-12.946   c-2.158-2.361-6.949,1.434-4.333,4.272c4.22,4.575,8.795,10.342,11.048,12.851c1.654,1.845-0.283,3.108-0.283,3.108   s-3.038-2.632-6.574-5.307c-4.912-3.709-8.855,0.519-3.606,4.427c5.216,3.886,26.706,23.469,26.706,23.469l13.448,19.057   l16.013-10.084L81.047,61.157z"></path></g></svg>