<svg xmlns="http://www.w3.org/2000/svg" xmlns:xlink="http://www.w3.org/1999/xlink" width="1200" height="1200" viewBox="0 0 1200 1200"><g><g transform="translate(600 600) scale(-0.69 0.69) rotate(0) translate(-600 -600)" style="fill:#000000"><svg fill="#000000" xmlns:dc="http://purl.org/dc/elements/1.1/" xmlns:cc="http://creativecommons.org/ns#" xmlns:rdf="http://www.w3.org/1999/02/22-rdf-syntax-ns#" xmlns:svg="http://www.w3.org/2000/svg" xmlns="http://www.w3.org/2000/svg" version="1.1" x="0px" y="0px" viewBox="0 0 100 125"><g transform="translate(0,-952.36218)"><path d="m 71.150663,1037.6234 -5.963661,-5.6655 c -1.825888,-2.0355 -6.739039,-4.1837 -11.550078,-4.0906 l -9.471835,-0.084 c -3.805578,-0.1074 -4.721327,-0.9636 -5.940497,-1.7414 -1.219035,-0.8035 -1.902791,-1.8168 -2.781358,-2.5076 -1.95532,-1.2047 -4.073423,-3.1204 -6.466013,-4.1553 -1.888706,-0.8168 -3.829871,-1.4166 -5.33698,-2.2822 -0.430753,-0.2474 -0.9729,-0.4726 -1.484797,-0.5698 l -4.845475,-0.1677 c -1.234357,-0.052 -2.085195,-1.1296 -1.285917,-2.8328 1.380884,-2.3525 3.815495,-4.1135 7.342763,-4.3795 1.2002,-0.05 3.303141,-0.3492 4.734473,-0.097 1.857733,0.326 3.46332,1.2072 5.230581,1.768 1.576954,0.5005 2.97805,1.8019 4.422284,2.3553 1.490703,0.6641 2.494052,0.7119 2.61101,-0.1612 0.04587,-0.3426 0.09729,-0.8425 -0.225543,-1.4787 -1.292129,-2.2861 -2.730754,-5.3462 -3.876385,-6.8582 -2.541103,-2.4919 -4.578082,-4.86009 -8.050882,-6.98879 -0.355635,-0.21799 -0.763211,-0.67323 -1.150184,-0.88046 l -3.09602,-2.03259 c -1.415629,-0.96674 -2.095971,-1.43993 -3.513267,-2.37833 -2.705761,-1.79151 -5.328778,-3.88273 -8.001534,-6.2353 -1.372335,-1.29692 -2.6624585,-2.22383 -4.1241502,-3.92285 -0.9498836,-0.69915 -3.0000672,-5.72549 1.192737,-5.14364 0.5488332,0.21366 1.7365732,0.49263 2.2601382,0.72403 3.933956,1.73862 6.543994,3.89032 9.761139,6.09729 l 11.143829,7.19328 c 1.89711,0.59721 2.526572,0.43136 2.890018,0.33146 0.593105,-0.93815 -0.522526,-2.03439 -0.602486,-2.14769 -3.724764,-2.98435 -7.267671,-6.77791 -10.924623,-10.75293 -1.105041,-1.20115 -2.459992,-2.29914 -3.531352,-3.54746 -2.144072,-2.49827 -4.522631,-4.93621 -5.871642,-7.70078 -1.467514,-3.7637 3.01419,-4.83999 5.154578,-2.99086 6.348882,5.49886 8.518181,8.14866 12.990932,12.1355 2.970565,2.32903 5.533076,5.30491 7.94552,8.2618 3.216902,2.49375 2.833192,0.266 2.292286,-1.00637 -2.930026,-2.73121 -5.072693,-5.93226 -6.839578,-8.88957 l -8.274589,-11.87175 c -1.692289,-2.75316 0.606481,-7.35775 5.143662,-2.98185 l 8.72186,10.58553 c 2.772495,3.06926 5.820129,6.2153 7.752758,9.39277 0.254001,0.60376 0.953571,1.5256 1.575745,1.89387 1.306132,0.77318 2.399698,0.7154 1.890634,-1.67023 l -1.197014,-2.08683 -2.791184,-6.43004 c -0.911134,-1.64173 -1.617,-3.07857 -2.688161,-4.62997 -0.497219,-0.72012 -0.941583,-1.53265 -1.350402,-2.38973 -0.281123,-0.58936 -0.507255,-1.26246 -0.797601,-1.91646 -0.576449,-2.02717 -0.624526,-4.25976 2.301607,-3.88572 0.109409,0.0779 0.950152,0.48549 1.052073,0.57274 2.375397,2.03297 3.93123,4.43005 5.827966,7.26003 l 6.612747,11.49324 1.048627,1.75763 c 0.27766,0.36782 0.544521,0.74098 0.889563,1.07511 7.402825,8.17122 13.775057,13.36588 16.84735,22.96012 l 10.287325,17.7418 6.112751,6.2619 -18.189177,16.8474 z" style="" fill="#000000" stroke="none"></path></g></svg></g></g></svg>