<?xml version="1.0" encoding="utf-8"?>
<!-- Generator: Adobe Illustrator 17.0.0, SVG Export Plug-In . SVG Version: 6.00 Build 0)  -->
<!DOCTYPE svg PUBLIC "-//W3C//DTD SVG 1.0//EN" "http://www.w3.org/TR/2001/REC-SVG-20010904/DTD/svg10.dtd">
<svg version="1.0" id="Layer_1" xmlns="http://www.w3.org/2000/svg" xmlns:xlink="http://www.w3.org/1999/xlink" x="0px" y="0px"
	 width="300px" height="300px" viewBox="0 0 300 300" enable-background="new 0 0 300 300" xml:space="preserve">
<g>
	<path fill="#4AB176" d="M241.289,205.887c15.77-2.544,40.697-22.384,48.328-21.875c2.035,0,4.07,0.509,6.105,1.526
		c0.509-0.509,0.509-1.526,0.509-2.035c-0.509-12.209-13.227-11.192-21.366-7.122c-5.087,2.035-10.174,6.105-14.244,9.157
		c-16.279,12.718-51.381,19.84-71.729,22.892l-16.232,1.445C189.447,210.893,222.975,208.431,241.289,205.887z M5.244,269.477
		L53.063,300c26.066-45.014,11.068-54.597,53.895-49.244c64.098,3.052,140.435,2.272,190.289-38.934
		c7.122-5.596-1.017-22.214-8.139-22.723c-5.596,0-36.215,20.066-56.055,23.118c-95.921,0.578-70.616,0.792-113.857-7.348
		c17.805-8.648,38.663-5.087,48.837-12.209c12.718-9.666,0.509-21.875-10.683-20.349c-8.648,1.526-46.499-0.13-91.657,15.456
		c-59.405,15.316-37.089,1.18-59.941,78.148C5.429,267.006,5.244,268.459,5.244,269.477z M167.016,206.905
		c35.61-4.07,74.782-13.227,86.991-22.892c-7.631-5.596-26.453,7.122-32.558,10.683C211.275,184.521,165.49,206.905,167.016,206.905
		z"/>
</g>
</svg>
