<?xml version="1.0" encoding="utf-8"?>
<!-- Generator: Adobe Illustrator 17.0.0, SVG Export Plug-In . SVG Version: 6.00 Build 0)  -->
<!DOCTYPE svg PUBLIC "-//W3C//DTD SVG 1.0//EN" "http://www.w3.org/TR/2001/REC-SVG-20010904/DTD/svg10.dtd">
<svg version="1.0" id="Layer_1" xmlns="http://www.w3.org/2000/svg" xmlns:xlink="http://www.w3.org/1999/xlink" x="0px" y="0px"
	 width="300px" height="300px" viewBox="0 0 300 300" enable-background="new 0 0 300 300" xml:space="preserve">
<g>
	<path fill="#4AB176" d="M121.702,246.343c6.795-1.194,28.309,5.154,40.833,0.045c22.55-9.18,81.094-44.245,98.391-48.297
		c7.799-1.825,5.354-26.442-10.17-27.716c-15.127-1.246-40.093,13.904-53.306,13.638c-18.349-0.369,1.178-17.896,11.214-23.932
		c19.422-11.723,51.433-38.712,61.793-45.683c11.735-7.914-2.09-29.82-18.971-19.676c-11.593,6.956-33.021,26.526-45.433,33.701
		c-11.649,6.736-13.108,2.105-8.104-5.037c4.919-7.024,37.647-50.569,43.296-58.341c7.883-10.845-12.545-23.505-21.088-12.382
		c-13.103,17.051-31.413,39.663-39.243,48.938c-12.022,14.216-14.781,4.338-11.204-2.258c3.507-6.467,26.015-41.645,31.134-50.845
		c4.968-8.933-13.05-16.686-19.115-6.362C171.504,59.557,157,80.664,150.653,91.116c-4.8,7.892-10.933,3.215-10.933,3.215
		s6.193-13.062,11.804-27.086c7.336-18.381-9.341-23.568-17.381-4.697C125.566,82.663,72.79,174.49,72.79,174.49l-47.614,55.838
		l35.622,56.462L121.702,246.343z"/>
</g>
</svg>
