<?xml version="1.0" encoding="utf-8"?>
<!-- Generator: Adobe Illustrator 17.0.0, SVG Export Plug-In . SVG Version: 6.00 Build 0)  -->
<!DOCTYPE svg PUBLIC "-//W3C//DTD SVG 1.0//EN" "http://www.w3.org/TR/2001/REC-SVG-20010904/DTD/svg10.dtd">
<svg version="1.0" id="Layer_1" xmlns="http://www.w3.org/2000/svg" xmlns:xlink="http://www.w3.org/1999/xlink" x="0px" y="0px"
	 width="300px" height="300px" viewBox="0 0 300 300" enable-background="new 0 0 300 300" xml:space="preserve">
<g>
	<path fill="#04AB17" d="M132.584,209.876l-16.231-1.445c-20.349-3.052-55.45-10.174-71.729-22.892
		c-4.07-3.052-9.157-7.122-14.244-9.157c-8.139-4.07-20.857-5.087-21.366,7.122c0,0.509,0,1.526,0.509,2.035
		c2.035-1.017,4.07-1.526,6.105-1.526c7.631-0.509,32.558,19.331,48.328,21.875C82.269,208.431,115.797,210.893,132.584,209.876z
		 M299.491,265.916c-22.852-76.967-0.536-62.832-59.941-78.148c-45.158-15.587-83.009-13.93-91.657-15.456
		c-11.192-1.526-23.401,10.683-10.683,20.349c10.174,7.122,31.032,3.561,48.837,12.209c-43.241,8.139-17.936,7.926-113.857,7.348
		c-19.84-3.052-50.459-23.118-56.055-23.118c-7.122,0.509-15.262,17.127-8.139,22.723c49.854,41.206,126.191,41.986,190.289,38.934
		c42.827-5.353,27.829,4.23,53.895,49.244L300,269.477C300,268.459,299.815,267.006,299.491,265.916z M83.795,194.695
		c-6.105-3.561-24.927-16.279-32.558-10.683c12.209,9.666,51.381,18.823,86.991,22.892
		C139.754,206.905,93.969,184.521,83.795,194.695z"/>
</g>
</svg>
