<svg xmlns="http://www.w3.org/2000/svg" xmlns:xlink="http://www.w3.org/1999/xlink" width="1200" height="1200" viewBox="0 0 1200 1200"><g><g transform="translate(600 600) scale(-0.69 0.69) rotate(0) translate(-600 -600)" style="fill:#000000"><svg fill="#000000" xmlns="http://www.w3.org/2000/svg" xmlns:xlink="http://www.w3.org/1999/xlink" xml:space="preserve" version="1.1" style="shape-rendering:geometricPrecision;text-rendering:geometricPrecision;image-rendering:optimizeQuality;" viewBox="0 0 574 251" x="0px" y="0px" fill-rule="evenodd" clip-rule="evenodd"><defs><style type="text/css">
   
    .fil0 {fill:#000000}
   
  </style></defs><g><path class="fil0" d="M212 71l1 0c-40,-6 -109,-20 -141,-45 -8,-6 -18,-14 -28,-18 -16,-8 -41,-10 -42,14 0,1 0,3 1,4 4,-2 8,-3 12,-3 15,-1 64,38 95,43 36,5 69,7 102,5zm361 113c-62,-124 -70,-148 -183,-171 -15,-3 -98,-10 -115,-13 -22,-3 -46,21 -21,40 20,14 61,7 96,24 -85,16 -156,25 -242,12 -39,-6 -81,-43 -92,-43 -14,1 -23,15 -9,26 98,81 214,108 340,102 52,-2 110,51 133,90l94 -60c0,-2 0,-5 -1,-7zm-424 -140c-12,-7 -49,-32 -64,-21 24,19 101,37 171,45 3,0 -87,-44 -107,-24z"></path></g></svg></g></g></svg>