<?xml version="1.0" encoding="utf-8"?>
<!-- Generator: Adobe Illustrator 17.0.0, SVG Export Plug-In . SVG Version: 6.00 Build 0)  -->
<!DOCTYPE svg PUBLIC "-//W3C//DTD SVG 1.0//EN" "http://www.w3.org/TR/2001/REC-SVG-20010904/DTD/svg10.dtd">
<svg version="1.0" id="Layer_1" xmlns="http://www.w3.org/2000/svg" xmlns:xlink="http://www.w3.org/1999/xlink" x="0px" y="0px"
	 width="300px" height="300px" viewBox="0 0 300 300" enable-background="new 0 0 300 300" xml:space="preserve">
<g>
	<path fill="#4AB176" d="M246.568,214.348c14.352-2.315,37.039-20.371,43.983-19.908c1.852,0,3.704,0.463,5.556,1.389
		c0.463-0.463,0.463-1.389,0.463-1.852c-0.463-11.112-12.038-10.186-19.445-6.482c-4.63,1.852-9.26,5.556-12.963,8.334
		c-14.815,11.575-46.761,18.056-65.28,20.834l-14.772,1.315C199.387,218.904,229.9,216.663,246.568,214.348z M31.744,272.221
		L75.264,300c23.723-40.967,10.073-49.689,49.05-44.817c58.336,2.778,127.809,2.068,173.181-35.434
		c6.482-5.093-0.926-20.217-7.408-20.68c-5.093,0-32.959,18.262-51.016,21.04c-87.297,0.526-64.267,0.72-103.62-6.687
		c16.204-7.871,35.187-4.63,44.446-11.112c11.575-8.797,0.463-19.908-9.723-18.519c-7.871,1.389-42.318-0.118-83.416,14.067
		c-54.064,13.939-33.755,1.074-54.552,71.122C31.912,269.973,31.744,271.295,31.744,272.221z M178.972,215.274
		c32.409-3.704,68.058-12.038,79.17-20.834c-6.945-5.093-24.075,6.482-29.631,9.723
		C219.252,194.903,177.583,215.274,178.972,215.274z"/>
</g>
</svg>
