<?xml version="1.0" encoding="utf-8"?>
<!-- Generator: Adobe Illustrator 17.0.0, SVG Export Plug-In . SVG Version: 6.00 Build 0)  -->
<!DOCTYPE svg PUBLIC "-//W3C//DTD SVG 1.0//EN" "http://www.w3.org/TR/2001/REC-SVG-20010904/DTD/svg10.dtd">
<svg version="1.0" id="Layer_1" xmlns="http://www.w3.org/2000/svg" xmlns:xlink="http://www.w3.org/1999/xlink" x="0px" y="0px"
	 width="300px" height="300px" viewBox="0 0 300 300" enable-background="new 0 0 300 300" xml:space="preserve">
<g>
	<path fill="#04AB17" d="M112.851,81.342l0.08-7.002c-4.007-6.303-4.46-13.526-1.233-19.849c1.831-3.585,4.786-6.656,8.335-8.881
		c3.364-10.848,6.929-21.924,8.186-29.071c3.461-19.564-20.969-20.447-23.904-7.114c-2.553,11.659-14.694,49.02-18.167,69.411
		c-0.096,0.562-0.205,1.148-0.321,1.754c2.758-2.188,6.002-3.798,9.439-4.561C101.995,74.541,108.402,76.476,112.851,81.342z"/>
	<path fill="#04AB17" d="M72.844,147.781c0.719-6.018,4.553-11.065,10.254-13.494c6.588-2.806,14.758-1.863,22.667,2.441
		c-7.295-8.672-15.4-18.151-23.105-26.501l-9.808-17.364c-3.846-10.88-1.325-33.407-6.351-45.049
		c-5.026-11.647-22.193-4.733-21.503,1.718c1.55,14.425-7.03,69.407-7.548,89.328c-0.397,14.838,2.674,32.945,2.674,32.945
		L5.351,240.271l70.035,31.779l30.291-57.748l0.578,0.377c0,0,5.817-5.299,14.798-13.421c-15.019-13.18-28.292-24.534-34.84-29.412
		C73.237,162.186,72.27,152.623,72.844,147.781z"/>
	<path fill="#04AB17" d="M209.032,51.994c0.574,2.622,1.722,6.825,3.164,11.908c1.212-1.345,2.425-2.674,3.625-3.979
		c9.33-10.117-4.802-23.265-14.148-19.439C205.202,43.113,207.924,46.956,209.032,51.994z"/>
	<path fill="#04AB17" d="M150.429,51.131c1.598,2.461,4.874,7.628,9.021,14.184c2.854-4.657,5.966-9.696,9.182-14.85
		c1.108-3.601,3.067-6.548,5.516-8.8c3.521-5.584,7.054-11.121,10.394-16.276c9.19-14.172-14.397-26.947-22.82-13.955
		c-2.871,4.424-11.578,18.231-20.294,32.03C145.049,45.012,148.152,47.618,150.429,51.131z"/>
	<path fill="#7CB996" d="M266.274,212.575c0.847-5.821,2.485-18.721,2.188-29.805c-0.522-19.921-9.097-74.903-7.548-89.328
		c0.695-6.452-16.476-13.365-21.503-1.718c-5.03,11.647-2.505,34.169-6.351,45.053c-5.472,15.485-11.526-3.585-13.289-14.027
		c-3.473-20.391-15.613-57.752-18.167-69.411c-2.935-13.337-27.36-12.45-23.904,7.11c2.345,13.313,12.683,40.256,14.85,53.95
		c2.023,12.775-2.569,12.566-7.291,5.564c-4.729-7.01-35.177-55.548-41.063-64.625c-8.423-12.992-32.009-0.213-22.82,13.955
		c13.55,20.901,30.211,48.088,36.646,59.105c9.575,16.424-1.377,15.987-6.769,10.258s-35.101-42.492-43.765-51.975
		c-8.664-9.479-27.898,5.757-17.396,17.151c16.942,18.367,35.31,41.52,44.355,51.593c6.64,7.407-1.136,12.478-1.136,12.478
		s-12.197-10.567-26.393-21.306c-19.72-14.891-35.55,2.084-14.477,17.773c20.941,15.601,107.217,94.222,107.217,94.222
		l28.893,40.945l66.095-41.903L266.274,212.575z"/>
</g>
</svg>
