<?xml version="1.0" encoding="utf-8"?>
<!-- Generator: Adobe Illustrator 17.0.0, SVG Export Plug-In . SVG Version: 6.00 Build 0)  -->
<!DOCTYPE svg PUBLIC "-//W3C//DTD SVG 1.0//EN" "http://www.w3.org/TR/2001/REC-SVG-20010904/DTD/svg10.dtd">
<svg version="1.0" id="Layer_1" xmlns="http://www.w3.org/2000/svg" xmlns:xlink="http://www.w3.org/1999/xlink" x="0px" y="0px"
	 width="300px" height="300px" viewBox="0 0 300 300" enable-background="new 0 0 300 300" xml:space="preserve">
<g>
	<path fill="#88CCA5" d="M118.543,219.813l-14.441-1.286c-18.105-2.715-49.336-9.052-63.82-20.368
		c-3.621-2.715-8.147-6.337-12.673-8.147c-7.242-3.621-18.557-4.526-19.01,6.337c0,0.453,0,1.358,0.453,1.811
		c1.811-0.905,3.621-1.358,5.432-1.358c6.79-0.453,28.968,17.2,42.999,19.463C73.776,218.528,103.607,220.718,118.543,219.813z
		 M267.047,269.674c-20.332-68.481-0.477-55.904-53.332-69.531c-40.179-13.868-73.856-12.394-81.551-13.752
		c-9.958-1.358-20.821,9.505-9.505,18.105c9.052,6.337,27.61,3.168,43.452,10.863c-38.473,7.242-15.958,7.052-101.303,6.538
		c-17.652-2.715-44.895-20.569-49.874-20.569c-6.337,0.453-13.579,15.239-7.242,20.218C52.05,258.208,119.97,258.902,177,256.187
		c38.105-4.763,24.761,3.764,47.953,43.814l42.547-27.158C267.5,271.937,267.335,270.644,267.047,269.674z M75.134,206.306
		c-5.432-3.168-22.179-14.484-28.968-9.505c10.863,8.6,45.716,16.748,77.399,20.368C124.923,217.17,84.186,197.254,75.134,206.306z"
		/>
</g>
</svg>
