<?xml version="1.0" encoding="utf-8"?>
<!-- Generator: Adobe Illustrator 17.0.0, SVG Export Plug-In . SVG Version: 6.00 Build 0)  -->
<!DOCTYPE svg PUBLIC "-//W3C//DTD SVG 1.0//EN" "http://www.w3.org/TR/2001/REC-SVG-20010904/DTD/svg10.dtd">
<svg version="1.0" id="Layer_1" xmlns="http://www.w3.org/2000/svg" xmlns:xlink="http://www.w3.org/1999/xlink" x="0px" y="0px"
	 width="447.995px" height="336.364px" viewBox="0 0 447.995 336.364" enable-background="new 0 0 447.995 336.364"
	 xml:space="preserve">
<title>Code</title>
<path fill="#4AB176" d="M273.275,0.376c-4.948-1.443-10.13,1.398-11.573,6.347l-93.333,317.333
	c-1.443,5.155,1.565,10.503,6.72,11.947c5.155,1.443,10.503-1.565,11.947-6.72l93.333-317.333c1.347-4.976-1.595-10.101-6.57-11.448
	C273.625,0.454,273.451,0.413,273.275,0.376z"/>
<path fill="#4AB176" d="M128.235,59.362c-3.693-3.58-9.561-3.58-13.253,0l-112,102.667c-3.814,3.619-3.973,9.644-0.355,13.459
	c0.115,0.121,0.233,0.24,0.355,0.355l112,102.667c3.814,3.505,9.748,3.254,13.253-0.56c3.505-3.814,3.254-9.748-0.56-13.253l0,0
	l-104.533-96.32l104.533-95.76C131.415,69.076,131.664,63.205,128.235,59.362z"/>
<path fill="#4AB176" d="M445.008,161.469l-112-102.667c-3.814-3.505-9.748-3.254-13.253,0.56c-3.505,3.814-3.254,9.748,0.56,13.253
	l104.533,95.76l-104.533,95.76c-8.4,7.653,2.24,23.333,14.187,12.32l112-102.667c0.982-1.634,1.499-3.506,1.493-5.413
	C447.969,165.766,446.892,163.276,445.008,161.469z"/>
</svg>
