<?xml version="1.0" encoding="utf-8"?>
<!-- Generator: Adobe Illustrator 17.0.0, SVG Export Plug-In . SVG Version: 6.00 Build 0)  -->
<!DOCTYPE svg PUBLIC "-//W3C//DTD SVG 1.0//EN" "http://www.w3.org/TR/2001/REC-SVG-20010904/DTD/svg10.dtd">
<svg version="1.0" id="Layer_1" xmlns="http://www.w3.org/2000/svg" xmlns:xlink="http://www.w3.org/1999/xlink" x="0px" y="0px"
	 width="934.5px" height="433.672px" viewBox="0 0 934.5 433.672" enable-background="new 0 0 934.5 433.672" xml:space="preserve">
<path fill="#4AB176" d="M354.585,347.979c-15.938-32.908-99.225-51.072-99.225-51.072l-44.366,74.164l-9.381-30.491
	c4.589-2.376,7.765-7.127,7.765-12.666c0-7.915-6.394-14.322-14.322-14.322h-10.738c-7.901,0-14.295,6.408-14.295,14.322
	c0,5.539,3.15,10.277,7.765,12.666l-9.381,30.491l-44.366-74.164c0,0-83.287,18.164-99.225,51.072
	C13.942,370.379,2.919,401.278,0,435.516h189.708h189.667C376.456,401.278,365.419,370.379,354.585,347.979z"/>
<path fill="none" stroke="#888888" stroke-width="20" stroke-miterlimit="10" d="M924.5,362.23c0,7.24-6.228,13.108-13.91,13.108
	H501.41c-7.682,0-13.91-5.869-13.91-13.108V116.447c0-7.24,6.228-13.108,13.91-13.108h409.18c7.682,0,13.91,5.869,13.91,13.108
	V362.23z"/>
<polygon fill="#B8B1A7" points="623,418.338 797,418.338 775,385.212 642.333,385.212 "/>
<rect x="497.833" y="113.338" fill="#E0EBE8" width="417.333" height="252.874"/>
<g id="lighbulb-head">
	<path fill="#FDC808" d="M251.667,80.985c-21.11-23.052-52.742-24.844-61.946-24.844s-40.836,1.792-61.946,24.844
		c-14.648,15.992-20.798,38.433-18.3,66.738c3.584,40.7,15.028,51.846,25.142,61.675c6.211,6.038,11.315,11.004,14.212,23.607
		h81.783c2.893-12.614,7.986-17.58,14.186-23.607c10.1-9.829,21.585-20.975,25.169-61.675
		C272.465,119.432,266.302,96.977,251.667,80.985z M256.229,146.515c-3.122,35.623-12.245,44.461-21.029,53.027
		c-7.372,7.168-14.988,14.567-18.612,33.193h-53.76c-3.638-18.64-11.241-26.025-18.612-33.193
		c-8.797-8.553-17.893-17.404-21.029-53.027c-2.159-24.301,2.81-43.212,14.716-56.231c17.771-19.4,46.266-20.377,51.805-20.377
		c5.539,0,34.048,0.977,51.805,20.377C253.419,103.304,258.374,122.215,256.229,146.515z"/>
	<path fill="#B8B1A7" d="M150.161,240.514v27.382c0,5.05,4.141,9.177,9.177,9.177h9.462c0,0.258-0.109,0.516-0.109,0.774
		c0,8.458,9.408,15.3,21.029,15.3c11.621,0,21.029-6.842,21.029-15.3c0-0.272-0.109-0.516-0.109-0.774h9.462
		c5.037,0,9.177-4.127,9.177-9.177v-27.382c0.369-2.78,0.816-5.263,1.331-7.509h-81.783
		C149.345,235.25,149.792,237.734,150.161,240.514z"/>
	<path fill="#FEF761" d="M185.119,39.321c0.339,1.833,1.778,3.38,3.733,3.733c0.285,0.054,0.557-0.014,0.855-0.014
		c0.299,0,0.557,0.068,0.855,0.014c1.941-0.367,3.394-1.901,3.733-3.733l4.955-26.758c0.977-5.281-2.498-10.358-7.765-11.336
		c-0.611-0.095-1.195-0.136-1.778-0.136c-0.584,0-1.168,0.041-1.778,0.149c-5.281,0.977-8.756,6.055-7.765,11.336L185.119,39.321z"
		/>
	<path fill="#FEF761" d="M88.894,58.286l22.427,15.408c1.534,1.059,3.665,1.127,5.281,0c0.244-0.163,0.394-0.407,0.611-0.611
		c0.19-0.204,0.421-0.339,0.611-0.584c1.113-1.643,1.032-3.733,0-5.281l-15.408-22.454c-3.041-4.412-9.096-5.539-13.521-2.498
		c-0.502,0.339-0.95,0.733-1.358,1.154c-0.421,0.407-0.828,0.855-1.168,1.358C83.355,49.191,84.468,55.245,88.894,58.286z"/>
	<path fill="#FEF761" d="M56.679,155.136l26.785-4.969c1.833-0.339,3.367-1.792,3.706-3.733c0.054-0.285,0-0.57,0-0.855
		c0-0.285,0.054-0.57,0-0.855c-0.339-1.955-1.887-3.394-3.706-3.733l-26.785-4.969c-5.281-0.977-10.345,2.512-11.322,7.779
		c-0.109,0.597-0.136,1.181-0.136,1.778c0,0.57,0.027,1.168,0.136,1.765C46.334,152.638,51.411,156.113,56.679,155.136z"/>
	<path fill="#FEF761" d="M262.202,73.084c0.217,0.204,0.339,0.448,0.584,0.611c1.643,1.127,3.76,1.059,5.308,0l22.427-15.408
		c4.426-3.041,5.539-9.082,2.525-13.521c-0.339-0.502-0.747-0.937-1.168-1.358c-0.421-0.421-0.855-0.815-1.358-1.154
		c-4.426-3.027-10.48-1.901-13.521,2.512l-15.409,22.441c-1.059,1.548-1.113,3.652,0,5.281
		C261.754,72.731,262.012,72.88,262.202,73.084z"/>
	<path fill="#FEF761" d="M292.218,144.737c-0.054,0.285,0.027,0.57,0.027,0.855c0,0.285-0.081,0.57-0.027,0.855
		c0.367,1.941,1.914,3.394,3.733,3.733l26.758,4.969c5.281,0.977,10.372-2.498,11.349-7.779c0.109-0.597,0.136-1.195,0.136-1.765
		c0-0.597-0.027-1.181-0.136-1.778c-0.977-5.267-6.068-8.756-11.349-7.779l-26.758,4.969
		C294.119,141.343,292.585,142.782,292.218,144.737z"/>
	<path fill="#FEF761" d="M238.167,95.005c11.938,15.668,12,27.667,12,27.667c1.022,16.533-0.968,18.75-1.986,37.667
		c-2.066,38.406-17.014,27.667-29.348,46.333c-1.977,2.992-6,21.333-6,21.333h-47.667c0,0-0.822-6-5.333-21.333
		c-4.493-15.271-26.667-13.667-29.842-47.58c-1.317-14.07-1.887-40.786,6.842-58.753s33.718-25.899,52.158-26.157
		C207.014,73.93,227.5,81.005,238.167,95.005z"/>
</g>
<g id="lighbulb-head_1_">
	<path fill="#FDC808" d="M745.229,218.567c-12.003-13.107-29.988-14.125-35.221-14.125c-5.233,0-23.218,1.019-35.221,14.125
		c-8.329,9.093-11.825,21.852-10.405,37.946c2.038,23.141,8.545,29.478,14.295,35.067c3.531,3.433,6.434,6.257,8.08,13.422h46.5
		c1.645-7.172,4.541-9.995,8.066-13.422c5.743-5.588,12.273-11.926,14.311-35.067C757.054,240.427,753.55,227.66,745.229,218.567z
		 M747.822,255.826c-1.775,20.254-6.962,25.279-11.956,30.15c-4.191,4.076-8.522,8.282-10.583,18.873h-30.567
		c-2.069-10.598-6.391-14.797-10.583-18.873c-5.002-4.863-10.173-9.896-11.956-30.15c-1.227-13.817,1.598-24.569,8.367-31.971
		c10.104-11.03,26.306-11.586,29.455-11.586s19.359,0.556,29.455,11.586C746.224,231.257,749.042,242.009,747.822,255.826z"/>
	<path fill="#B8B1A7" d="M687.515,309.271v15.569c0,2.871,2.354,5.218,5.218,5.218h5.38c0,0.147-0.062,0.293-0.062,0.44
		c0,4.809,5.349,8.699,11.956,8.699c6.607,0,11.956-3.89,11.956-8.699c0-0.154-0.062-0.293-0.062-0.44h5.38
		c2.864,0,5.218-2.347,5.218-5.218v-15.569c0.21-1.58,0.464-2.993,0.757-4.269h-46.5
		C687.051,306.279,687.305,307.691,687.515,309.271z"/>
	<path fill="#FEF761" d="M707.391,194.878c0.193,1.042,1.011,1.922,2.123,2.123c0.162,0.031,0.316-0.008,0.486-0.008
		s0.316,0.039,0.486,0.008c1.104-0.208,1.93-1.081,2.123-2.123l2.817-15.214c0.556-3.003-1.42-5.889-4.415-6.445
		c-0.347-0.054-0.679-0.077-1.011-0.077s-0.664,0.023-1.011,0.085c-3.003,0.556-4.979,3.443-4.415,6.445L707.391,194.878z"/>
	<path fill="#FEF761" d="M652.68,205.661l12.752,8.761c0.872,0.602,2.084,0.641,3.003,0c0.139-0.093,0.224-0.232,0.347-0.347
		c0.108-0.116,0.239-0.193,0.347-0.332c0.633-0.934,0.587-2.123,0-3.003l-8.761-12.767c-1.729-2.509-5.172-3.149-7.688-1.42
		c-0.286,0.193-0.54,0.417-0.772,0.656c-0.239,0.232-0.471,0.486-0.664,0.772C649.531,200.49,650.164,203.932,652.68,205.661z"/>
	<path fill="#FEF761" d="M634.363,260.728l15.229-2.825c1.042-0.193,1.914-1.019,2.107-2.123c0.031-0.162,0-0.324,0-0.486
		s0.031-0.324,0-0.486c-0.193-1.112-1.073-1.93-2.107-2.123l-15.229-2.825c-3.003-0.556-5.882,1.428-6.438,4.423
		c-0.062,0.34-0.077,0.672-0.077,1.011c0,0.324,0.015,0.664,0.077,1.003C628.481,259.307,631.368,261.283,634.363,260.728z"/>
	<path fill="#FEF761" d="M751.219,214.075c0.124,0.116,0.193,0.255,0.332,0.347c0.934,0.641,2.138,0.602,3.018,0l12.752-8.761
		c2.516-1.729,3.149-5.164,1.436-7.688c-0.193-0.286-0.425-0.533-0.664-0.772c-0.239-0.239-0.486-0.463-0.772-0.656
		c-2.516-1.721-5.959-1.081-7.688,1.428l-8.761,12.759c-0.602,0.88-0.633,2.076,0,3.003
		C750.964,213.874,751.111,213.959,751.219,214.075z"/>
	<path fill="#FEF761" d="M768.285,254.815c-0.031,0.162,0.015,0.324,0.015,0.486s-0.046,0.324-0.015,0.486
		c0.208,1.104,1.088,1.93,2.123,2.123l15.214,2.825c3.003,0.556,5.897-1.42,6.453-4.423c0.062-0.34,0.077-0.679,0.077-1.003
		c0-0.34-0.015-0.672-0.077-1.011c-0.556-2.995-3.45-4.979-6.453-4.423l-15.214,2.825
		C769.366,252.885,768.493,253.703,768.285,254.815z"/>
	<path fill="#FEF761" d="M737.553,226.539c6.787,8.909,6.823,15.731,6.823,15.731c0.581,9.4-0.55,10.661-1.129,21.416
		c-1.175,21.837-9.674,15.731-16.686,26.344c-1.124,1.701-3.411,12.13-3.411,12.13h-27.102c0,0-0.468-3.411-3.032-12.13
		c-2.554-8.683-15.162-7.771-16.967-27.053c-0.749-8-1.073-23.19,3.89-33.405c4.963-10.216,19.171-14.726,29.656-14.872
		C719.84,214.556,731.488,218.579,737.553,226.539z"/>
</g>
<rect x="533.167" y="416.338" fill="#888888" width="336" height="17.333"/>
<g>
	<g>
		<path fill="#4AB176" d="M340.908,251.748h52.238v19.91c0,0.96,0.579,1.826,1.465,2.194c0.89,0.371,1.909,0.166,2.588-0.515
			l43.654-43.654c0.927-0.927,0.927-2.43,0-3.357l-43.654-43.654c-0.455-0.455-1.061-0.696-1.679-0.696
			c-0.306,0-0.615,0.059-0.909,0.181c-0.887,0.367-1.465,1.234-1.465,2.194v19.909h-52.238c-1.312,0-2.374,1.063-2.374,2.374v42.74
			C338.533,250.685,339.595,251.748,340.908,251.748z"/>
	</g>
</g>
<rect x="497.833" y="113.338" fill="#FFFFFF" width="417.333" height="41.976"/>
<g>
	<path fill="#4AB176" d="M887.597,145.256h18.43c1.273,0,2.304-1.031,2.304-2.304v-18.43c0-1.273-1.031-2.304-2.304-2.304h-18.43
		c-1.273,0-2.304,1.031-2.304,2.304v18.43C885.293,144.224,886.324,145.256,887.597,145.256z M889.901,126.825h13.823v13.823
		h-13.823V126.825z"/>
	<path fill="#4AB176" d="M859.952,145.256h18.43c1.273,0,2.304-1.031,2.304-2.304v-18.43c0-1.273-1.031-2.304-2.304-2.304h-18.43
		c-1.273,0-2.304,1.031-2.304,2.304v18.43C857.648,144.224,858.679,145.256,859.952,145.256z M862.255,126.825h13.823v13.823
		h-13.823V126.825L862.255,126.825z"/>
	<path fill="#4AB176" d="M832.306,145.256h18.43c1.273,0,2.304-1.031,2.304-2.304v-18.43c0-1.273-1.031-2.304-2.304-2.304h-18.43
		c-1.273,0-2.304,1.031-2.304,2.304v18.43C830.003,144.224,831.034,145.256,832.306,145.256z M834.61,126.825h13.823v13.823H834.61
		V126.825z"/>
	<path fill="#4AB176" d="M901.082,129.467c-0.45-0.45-1.179-0.45-1.629,0l-2.641,2.641l-2.641-2.641c-0.45-0.45-1.179-0.45-1.629,0
		c-0.451,0.45-0.45,1.179,0,1.629l2.641,2.641l-2.641,2.641c-0.45,0.45-0.45,1.179,0,1.629c0.225,0.225,0.52,0.337,0.815,0.337
		c0.295,0,0.59-0.113,0.815-0.337l2.641-2.641l2.641,2.641c0.225,0.225,0.52,0.337,0.815,0.337c0.295,0,0.59-0.113,0.815-0.337
		c0.45-0.45,0.45-1.179,0-1.629l-2.641-2.641l2.641-2.641C901.532,130.646,901.532,129.916,901.082,129.467z"/>
	<path fill="#4AB176" d="M844.977,136.04h-6.911c-0.636,0-1.152,0.516-1.152,1.152s0.516,1.152,1.152,1.152h6.911
		c0.636,0,1.152-0.516,1.152-1.152S845.613,136.04,844.977,136.04z"/>
	<path fill="#4AB176" d="M872.622,129.129h-6.911c-0.636,0-1.152,0.516-1.152,1.152v6.911c0,0.636,0.516,1.152,1.152,1.152h6.911
		c0.636,0,1.152-0.516,1.152-1.152v-6.911C873.774,129.645,873.258,129.129,872.622,129.129z M871.47,136.04h-4.608v-4.608h4.608
		V136.04z"/>
</g>
</svg>
