<?xml version="1.0" encoding="utf-8"?>
<!-- Generator: Adobe Illustrator 17.0.0, SVG Export Plug-In . SVG Version: 6.00 Build 0)  -->
<!DOCTYPE svg PUBLIC "-//W3C//DTD SVG 1.0//EN" "http://www.w3.org/TR/2001/REC-SVG-20010904/DTD/svg10.dtd">
<svg version="1.0" id="Layer_1" xmlns="http://www.w3.org/2000/svg" xmlns:xlink="http://www.w3.org/1999/xlink" x="0px" y="0px"
	 width="30px" height="30px" viewBox="0 0 30 30" enable-background="new 0 0 30 30" xml:space="preserve">
<g>
	<g>
		<path fill="#4AB176" d="M30.056,15.028C30.056,6.739,23.317,0,15.028,0S0,6.739,0,15.028s6.739,15.028,15.028,15.028
			S30.056,23.317,30.056,15.028z M2.816,15.028c0-6.739,5.473-12.212,12.212-12.212S27.24,8.289,27.24,15.028
			S21.767,27.24,15.028,27.24S2.816,21.767,2.816,15.028z"/>
		<path fill="#4AB176" d="M21.83,14.395c0.538-0.538,0.538-1.455,0-1.993c-0.538-0.538-1.455-0.538-1.993,0l-4.809,4.809
			l-4.809-4.809c-0.538-0.538-1.455-0.538-1.993,0c-0.285,0.285-0.411,0.633-0.411,1.012c0,0.348,0.127,0.728,0.411,1.012
			l5.821,5.821c0.253,0.253,0.633,0.411,1.012,0.411s0.728-0.158,1.012-0.411L21.83,14.395z"/>
	</g>
</g>
</svg>
